<svg width="40" height="34" viewBox="0 0 40 34" fill="none" xmlns="http://www.w3.org/2000/svg">
<path fill-rule="evenodd" clip-rule="evenodd" d="M4.42871 16.0559C4.42871 15.0126 5.42009 14.167 6.64309 14.167H8.85747C10.0805 14.167 11.0719 15.0126 11.0719 16.0559V17.9448C11.0719 18.988 10.0805 19.8337 8.85747 19.8337H6.64309C5.42009 19.8337 4.42871 18.988 4.42871 17.9448V16.0559ZM8.85747 16.0559V17.9448H6.64309V16.0559H8.85747Z" fill="#0065A3"/>
<path fill-rule="evenodd" clip-rule="evenodd" d="M15.5006 14.167C14.2776 14.167 13.2863 15.0126 13.2863 16.0559V17.9448C13.2863 18.988 14.2776 19.8337 15.5006 19.8337H17.715C18.938 19.8337 19.9294 18.988 19.9294 17.9448V16.0559C19.9294 15.0126 18.938 14.167 17.715 14.167H15.5006ZM17.715 16.0559H15.5006V17.9448H17.715V16.0559Z" fill="#0065A3"/>
<path fill-rule="evenodd" clip-rule="evenodd" d="M22.1438 16.0559C22.1438 15.0126 23.1352 14.167 24.3582 14.167H26.5726C27.7956 14.167 28.7869 15.0126 28.7869 16.0559V17.9448C28.7869 18.988 27.7956 19.8337 26.5726 19.8337H24.3582C23.1352 19.8337 22.1438 18.988 22.1438 17.9448V16.0559ZM24.3582 16.0559H26.5726V17.9448H24.3582V16.0559Z" fill="#0065A3"/>
<path fill-rule="evenodd" clip-rule="evenodd" d="M6.64309 21.7227C5.42009 21.7227 4.42871 22.5683 4.42871 23.6115V25.5004C4.42871 26.5437 5.42009 27.3893 6.64309 27.3893H8.85747C10.0805 27.3893 11.0719 26.5437 11.0719 25.5004V23.6115C11.0719 22.5683 10.0805 21.7227 8.85747 21.7227H6.64309ZM6.64309 23.6115V25.5004H8.85747V23.6115H6.64309Z" fill="#0065A3"/>
<path fill-rule="evenodd" clip-rule="evenodd" d="M13.2863 23.6115C13.2863 22.5683 14.2776 21.7227 15.5006 21.7227H17.715C18.938 21.7227 19.9294 22.5683 19.9294 23.6115V25.5004C19.9294 26.5437 18.938 27.3893 17.715 27.3893H15.5006C14.2776 27.3893 13.2863 26.5437 13.2863 25.5004V23.6115ZM15.5006 23.6115H17.715V25.5004H15.5006V23.6115Z" fill="#0065A3"/>
<path d="M32.1085 24.083C32.72 24.083 33.2157 24.5058 33.2157 25.0275V26.9974L33.9986 27.6652C34.431 28.034 34.431 28.632 33.9986 29.0008C33.5663 29.3696 32.8652 29.3696 32.4328 29.0008L31.0013 27.7798V25.0275C31.0013 24.5058 31.497 24.083 32.1085 24.083Z" fill="#0065A3"/>
<path fill-rule="evenodd" clip-rule="evenodd" d="M6.64314 0.944444C6.64314 0.422847 7.13883 0 7.75033 0C8.36184 0 8.85752 0.422847 8.85752 0.944444V5.66667C8.85752 6.18828 8.36184 6.61111 7.75033 6.61111C7.13883 6.61111 6.64314 6.18828 6.64314 5.66667V4.72222H3.32157C2.71009 4.72222 2.21438 5.14505 2.21438 5.66667V9.44444H31.0013V5.66667C31.0013 5.14505 30.5056 4.72222 29.8941 4.72222H26.5726V2.83333H29.8941C31.7287 2.83333 33.2157 4.10191 33.2157 5.66667V20.8447C36.9716 21.303 39.8589 24.0583 39.8589 27.3889C39.8589 31.0401 36.3889 34 32.1085 34C29.4749 34 27.1479 32.8794 25.7474 31.1667H3.32157C1.48712 31.1667 0 29.8982 0 28.3333V5.66667C0 4.10182 1.48712 2.83333 3.32157 2.83333H6.64314V0.944444ZM24.3582 27.3889C24.3582 24.0583 27.2454 21.303 31.0013 20.8447V11.3333H2.21438V28.3333C2.21438 28.8549 2.71009 29.2778 3.32157 29.2778H24.6792C24.4704 28.6793 24.3582 28.0453 24.3582 27.3889ZM32.1085 32.1111C35.1659 32.1111 37.6445 29.9969 37.6445 27.3889C37.6445 24.7809 35.1659 22.6667 32.1085 22.6667C29.0511 22.6667 26.5726 24.7809 26.5726 27.3889C26.5726 29.9969 29.0511 32.1111 32.1085 32.1111Z" fill="#0065A3"/>
<path d="M23.251 6.61111C22.6395 6.61111 22.1438 6.18828 22.1438 5.66667V4.72222H11.0719V2.83333H22.1438V0.944444C22.1438 0.422847 22.6395 0 23.251 0C23.8625 0 24.3582 0.422847 24.3582 0.944444V5.66667C24.3582 6.18828 23.8625 6.61111 23.251 6.61111Z" fill="#0065A3"/>
</svg>
