<svg width="34" height="34" viewBox="0 0 34 34" fill="none" xmlns="http://www.w3.org/2000/svg">
    <path
        d="M16.6396 0.5C25.5544 0.500173 32.7783 7.70584 32.7783 16.5908C32.7781 25.4756 25.5543 32.6805 16.6396 32.6807C7.7249 32.6807 0.500234 25.4757 0.5 16.5908C0.5 7.70573 7.72475 0.5 16.6396 0.5Z"
        fill="white" stroke="#C4C4C4" />
    <g clip-path="url(#clip0_2024_2214)">
        <path
            d="M24.2176 13.7245C23.5164 10.1778 20.3923 7.51514 16.6392 7.51514C13.6594 7.51514 11.0714 9.20112 9.78258 11.6684C6.67906 11.9974 4.26636 14.6189 4.26636 17.7955C4.26636 21.1983 7.03993 23.9637 10.4528 23.9637H23.8567C26.7024 23.9637 29.012 21.6609 29.012 18.8235C29.012 16.1095 26.8983 13.9095 24.2176 13.7245ZM23.8567 21.9077H10.4528C8.17411 21.9077 6.3285 20.0675 6.3285 17.7955C6.3285 15.688 7.90603 13.9301 9.9991 13.7142L11.1023 13.6011L11.6179 12.6245C12.5974 10.7432 14.5152 9.57121 16.6392 9.57121C19.3406 9.57121 21.6708 11.4834 22.1967 14.1254L22.506 15.6675L24.0835 15.7806C25.692 15.8834 26.9499 17.2301 26.9499 18.8235C26.9499 20.5198 25.5579 21.9077 23.8567 21.9077V21.9077ZM12.5149 16.7675H15.1441V19.8516H18.1342V16.7675H20.7635L16.6392 12.6553L12.5149 16.7675Z"
            fill="#979797" />
    </g>
    <defs>
        <clipPath id="clip0_2024_2214">
            <rect width="24.7457" height="24.6729" fill="white"
                transform="translate(4.26636 3.40308)" />
        </clipPath>
    </defs>
</svg>
