<svg width="100%" height="100%" viewBox="0 0 22 22" fill="none" xmlns="http://www.w3.org/2000/svg">
    <path
        d="M1 7.66667H21M1 7.66667V17.4447C1 18.6892 1 19.3112 1.27248 19.7865C1.51217 20.2047 1.89434 20.545 2.36475 20.758C2.899 21 3.59874 21 4.99614 21H17.0045C18.4019 21 19.1006 21 19.6349 20.758C20.1053 20.545 20.4881 20.2047 20.7278 19.7865C21 19.3116 21 18.6905 21 17.4484V7.66667M1 7.66667V6.778C1 5.53343 1 4.91069 1.27248 4.43533C1.51217 4.01719 1.89434 3.67748 2.36475 3.46443C2.89953 3.22222 3.60011 3.22222 5.00024 3.22222H6M21 7.66667V6.77434C21 5.53222 21 4.91022 20.7278 4.43533C20.4881 4.01719 20.1053 3.67748 19.6349 3.46443C19.1001 3.22222 18.4004 3.22222 17.0002 3.22222H16M6 3.22222H16M6 3.22222V1M16 3.22222V1M14.125 14.3333H11M11 14.3333H7.875M11 14.3333V11.5556M11 14.3333V17.1111"
        stroke="#0065A3" stroke-width="2" stroke-linecap="round" stroke-linejoin="round" />
</svg>
