<svg width="24" height="19" viewBox="0 0 24 19" fill="none" xmlns="http://www.w3.org/2000/svg">
<path fill-rule="evenodd" clip-rule="evenodd" d="M14.6839 8.66729C14.5396 8.43887 14.3358 8.25399 14.0945 8.13245C13.8532 8.01091 13.5833 7.95727 13.3139 7.97729C12.9976 7.99474 12.6865 8.06575 12.3939 8.18729C12.3339 8.03729 12.2839 7.87729 12.2339 7.71729L12.0539 7.28729C12.3277 7.21498 12.6109 7.18463 12.8939 7.19729C12.9933 7.21161 13.0943 7.18598 13.1749 7.12602C13.2555 7.06606 13.3091 6.97663 13.3239 6.87729C13.3325 6.82672 13.331 6.77496 13.3196 6.72496C13.3082 6.67496 13.287 6.62771 13.2572 6.58591C13.2275 6.54411 13.1898 6.50858 13.1464 6.48136C13.1029 6.45415 13.0545 6.43577 13.0039 6.42729C12.5834 6.3579 12.1544 6.3579 11.7339 6.42729C11.5739 6.01729 11.3939 5.59729 11.2439 5.18729C11.2292 5.12751 11.2002 5.0722 11.1594 5.0261C11.1186 4.98001 11.0672 4.94451 11.0097 4.92267C10.9521 4.90083 10.8901 4.8933 10.829 4.90072C10.7679 4.90815 10.7095 4.9303 10.6589 4.96529C10.598 5.0082 10.5515 5.06848 10.5255 5.13824C10.4994 5.208 10.4951 5.28399 10.5129 5.35629C10.5629 5.81629 10.6529 6.28629 10.7129 6.74629C10.5029 6.80562 10.2996 6.88229 10.1029 6.97629C9.9104 7.0859 9.74178 7.23292 9.60699 7.4087C9.4722 7.58449 9.37395 7.78547 9.31804 7.99981C9.26212 8.21415 9.24967 8.43751 9.28142 8.65674C9.31317 8.87596 9.38847 9.08662 9.50289 9.27629C9.61652 9.51694 9.79418 9.72168 10.0164 9.86808C10.2387 10.0145 10.4969 10.0969 10.7629 10.1063C11.0188 10.0999 11.272 10.0526 11.5129 9.96629L11.6329 10.2763C11.7729 10.6063 11.9429 10.9163 12.0929 11.2763C11.6197 11.4611 11.0975 11.4787 10.6129 11.3263C10.5624 11.3029 10.5078 11.2898 10.4521 11.2877C10.3965 11.2856 10.3411 11.2946 10.289 11.3142C10.2369 11.3337 10.1892 11.3634 10.1486 11.4015C10.1081 11.4397 10.0756 11.4855 10.0529 11.5363C10.0279 11.5873 10.0135 11.6428 10.0106 11.6995C10.0077 11.7562 10.0164 11.8129 10.036 11.8662C10.0556 11.9195 10.0858 11.9682 10.1248 12.0095C10.1638 12.0508 10.2108 12.0837 10.2629 12.1063C10.9879 12.4063 11.7929 12.4463 12.5429 12.2163L12.8129 12.7663C12.8338 12.8189 12.8649 12.8668 12.9044 12.9074C12.9439 12.9479 12.991 12.9803 13.0431 13.0026C13.0951 13.0249 13.151 13.0367 13.2076 13.0373C13.2642 13.038 13.3204 13.0274 13.3729 13.0063C13.428 12.9858 13.4782 12.9539 13.5203 12.9128C13.5623 12.8716 13.5952 12.8221 13.6169 12.7675C13.6386 12.7128 13.6486 12.6542 13.6461 12.5954C13.6437 12.5366 13.629 12.479 13.6029 12.4263L13.4529 11.8563C13.6709 11.763 13.8776 11.6496 14.0729 11.5163C14.4251 11.3037 14.7031 10.9878 14.8692 10.6114C15.0353 10.2351 15.0812 9.81671 15.0009 9.41329C14.9474 9.14524 14.8395 8.89201 14.6839 8.66729ZM10.6239 8.66629C10.3839 8.31629 10.5639 8.01629 10.8639 7.79629C10.8639 7.89629 10.8639 7.99629 10.9139 8.09629C10.9639 8.19629 11.0139 8.48629 11.0739 8.68629L10.8939 8.74629C10.7939 8.76629 10.6939 8.77629 10.6239 8.67629V8.66629ZM13.1439 10.7563C13.0739 10.4563 12.9939 10.1663 12.9139 9.87629L12.8239 9.55629C12.9692 9.49296 13.1192 9.44296 13.2739 9.40629C13.3739 9.40629 13.4739 9.40629 13.5339 9.46629C13.9039 9.95629 13.6039 10.4263 13.1439 10.7663V10.7563Z" fill="black"/>
<path fill-rule="evenodd" clip-rule="evenodd" d="M22.7339 6.92733C22.5209 6.33836 22.2772 5.7609 22.0039 5.19733C21.7003 4.62985 21.3665 4.07906 21.0039 3.54733C20.1765 2.32115 19.2393 1.17276 18.2039 0.11633C18.1702 0.07966 18.1292 0.050387 18.0836 0.0303631C18.038 0.0103391 17.9887 0 17.9389 0C17.8891 0 17.8398 0.0103391 17.7942 0.0303631C17.7486 0.050387 17.7076 0.07966 17.6739 0.11633C17.6125 0.170289 17.5733 0.245122 17.5639 0.32633C17.4931 0.273575 17.4072 0.245078 17.3189 0.245078C17.2306 0.245078 17.1447 0.273575 17.0739 0.32633C16.0861 0.988036 15.0611 1.59237 14.0039 2.13633C13.3319 2.48336 12.6151 2.73576 11.8739 2.88633C10.3039 3.06833 8.72192 3.12533 7.14392 3.05633C6.41848 3.09474 5.70015 3.21894 5.00392 3.42633C4.23339 3.68843 3.50561 4.06243 2.84392 4.53633C1.89766 5.20557 1.04014 5.99219 0.291923 6.87733C0.257959 6.92071 0.233321 6.97063 0.219555 7.02398C0.205789 7.07732 0.20319 7.13293 0.211923 7.18733C0.12872 7.22665 0.0631544 7.29556 0.0280233 7.38061C-0.00710781 7.46566 -0.00928283 7.56076 0.0219228 7.64733C0.401923 8.91733 0.721923 10.2373 1.15192 11.5373C1.50592 12.6523 1.95192 13.7363 2.48192 14.7773C3.09536 16.0142 3.80417 17.2015 4.60192 18.3283C4.65017 18.3967 4.71818 18.4487 4.79684 18.4773C4.87549 18.5059 4.96102 18.5098 5.04192 18.4883C5.03518 18.5773 5.05996 18.6658 5.11192 18.7383C5.17612 18.8138 5.26663 18.862 5.36506 18.8731C5.4635 18.8842 5.56248 18.8575 5.64192 18.7983C6.59367 18.1037 7.59652 17.4819 8.64192 16.9383C9.62929 16.4042 10.7019 16.0456 11.8119 15.8783C12.9007 15.702 13.9996 15.5951 15.1019 15.5583C16.2637 15.5082 17.4186 15.3543 18.5529 15.0983C20.1196 14.7418 21.5606 13.9677 22.7229 12.8583C22.8081 12.7848 22.8611 12.6807 22.8705 12.5685C22.8798 12.4564 22.8448 12.345 22.7729 12.2583C22.6898 12.1817 22.5809 12.1392 22.4679 12.1392C22.3549 12.1392 22.246 12.1817 22.1629 12.2583C21.0473 13.1488 19.7216 13.7376 18.3129 13.9683C17.2216 14.1053 16.1228 14.1754 15.0229 14.1783C13.8619 14.2013 12.7049 14.3183 11.5629 14.5283C10.5703 14.7577 9.6168 15.1317 8.73292 15.6383C7.53766 16.3455 6.4155 17.1696 5.38292 18.0983C5.39381 18.0388 5.39381 17.9778 5.38292 17.9183C4.74172 16.6898 4.17406 15.4242 3.68292 14.1283C3.34292 13.2783 3.02292 12.4183 2.68292 11.5783C2.08292 10.1583 1.40192 8.77833 0.781923 7.42833H0.871923C1.5199 6.78511 2.23384 6.21195 3.00192 5.71833C3.72346 5.24842 4.52244 4.90987 5.36192 4.71833C6.01941 4.57961 6.68999 4.51255 7.36192 4.51833H10.7219C11.218 4.4758 11.7097 4.39218 12.1919 4.26833C13.0301 4.04452 13.8341 3.70813 14.5819 3.26833C15.6229 2.5917 16.6248 1.85686 17.5829 1.06733C17.6419 1.01406 17.6837 0.944438 17.7029 0.86733C18.4765 1.99711 19.1811 3.17258 19.8129 4.38733C20.1029 4.91733 20.3829 5.44733 20.6629 5.98733C20.9429 6.52733 21.2229 7.05733 21.4929 7.60733C22.1295 8.84419 22.6873 10.1201 23.1629 11.4273C23.178 11.4819 23.2036 11.5329 23.2384 11.5775C23.2732 11.6221 23.3164 11.6595 23.3657 11.6873C23.4149 11.7152 23.4691 11.7331 23.5253 11.7399C23.5815 11.7468 23.6384 11.7425 23.6929 11.7273C23.8012 11.6949 23.8924 11.621 23.9467 11.5218C24.001 11.4226 24.014 11.3061 23.9829 11.1973C23.689 9.7409 23.2718 8.31233 22.7339 6.92733Z" fill="black"/>
<path fill-rule="evenodd" clip-rule="evenodd" d="M17.114 11.4873C17.0594 11.4724 17.0025 11.4687 16.9465 11.4763C16.8904 11.4839 16.8365 11.5027 16.788 11.5317C16.7394 11.5606 16.6972 11.5991 16.6639 11.6447C16.6305 11.6904 16.6068 11.7423 16.594 11.7973C16.5789 11.8512 16.5747 11.9075 16.5817 11.963C16.5887 12.0185 16.6067 12.072 16.6346 12.1204C16.6626 12.1689 16.6999 12.2112 16.7444 12.245C16.789 12.2789 16.8398 12.3034 16.894 12.3173C17.504 12.4713 18.144 12.4713 18.754 12.3173C19.6215 12.1057 20.4535 11.7688 21.224 11.3173C21.3595 11.1934 21.4582 11.0345 21.5094 10.8581C21.5605 10.6817 21.5621 10.4946 21.514 10.3173C21.2556 9.02296 20.8181 7.7709 20.214 6.59735C19.7749 5.6814 19.242 4.81343 18.624 4.00735C18.3063 3.54588 17.8515 3.19604 17.324 3.00735C17.0504 2.98265 16.7779 3.06511 16.564 3.23735C15.844 3.97814 14.9701 4.55166 14.004 4.91735C13.9506 4.92194 13.8988 4.93775 13.852 4.96376C13.8052 4.98977 13.7644 5.02538 13.7323 5.06825C13.7002 5.11113 13.6775 5.16031 13.6658 5.21256C13.654 5.26481 13.6535 5.31895 13.6641 5.37144C13.6747 5.42393 13.6964 5.47358 13.7275 5.51713C13.7587 5.56068 13.7987 5.59715 13.845 5.62414C13.8912 5.65114 13.9427 5.66805 13.9959 5.67377C14.0492 5.6795 14.103 5.6739 14.154 5.65735C14.677 5.56611 15.1808 5.38691 15.644 5.12735C16.2034 4.91116 16.7368 4.63274 17.234 4.29735L17.284 4.36735C17.578 4.74735 17.836 5.15735 18.054 5.58735C18.524 6.39735 19.054 7.39735 19.424 8.30735C19.7073 8.91268 19.9573 9.53268 20.174 10.1673C20.174 10.2673 20.254 10.3773 20.284 10.4573C19.7279 10.8296 19.1263 11.1287 18.494 11.3473C18.053 11.5093 17.578 11.5573 17.114 11.4873ZM5.15297 7.36735C5.69275 7.05185 6.28595 6.8383 6.90297 6.73735C7.56158 6.60554 8.23764 6.58526 8.90297 6.67735C9.00209 6.6921 9.10309 6.66814 9.18502 6.61042C9.26694 6.5527 9.3235 6.46566 9.34297 6.36735C9.35142 6.31587 9.34919 6.26321 9.33641 6.21264C9.32363 6.16206 9.30058 6.11466 9.26868 6.07339C9.23679 6.03211 9.19674 5.99784 9.15102 5.97272C9.10531 5.94759 9.05491 5.93215 9.00297 5.92735C8.26902 5.7588 7.51342 5.70483 6.76297 5.76735C5.97125 5.81603 5.19513 6.00921 4.47297 6.33735C4.07461 6.57193 3.71389 6.86523 3.40297 7.20735C3.14215 7.49026 2.95648 7.83409 2.86297 8.20735C2.80902 8.46455 2.80902 8.73015 2.86297 8.98735C2.9183 9.26735 2.9883 9.54401 3.07297 9.81735C3.21297 10.2473 3.34297 10.7073 3.50297 11.1473C3.66297 11.5873 3.84297 12.0373 4.04297 12.4773L5.04297 14.4773L5.30297 14.9973C5.36693 15.1101 5.46268 15.2015 5.57827 15.2602C5.69387 15.3189 5.82419 15.3423 5.95297 15.3273C6.23297 15.2573 6.75297 14.7373 7.63297 14.3273C7.95067 14.1604 8.2861 14.0296 8.63297 13.9373C8.69388 13.9342 8.75343 13.9181 8.80765 13.8902C8.86188 13.8623 8.90954 13.8231 8.94747 13.7754C8.98541 13.7276 9.01275 13.6723 9.02767 13.6132C9.0426 13.554 9.04478 13.4924 9.03405 13.4323C9.02333 13.3723 8.99996 13.3152 8.96548 13.2649C8.93101 13.2146 8.88623 13.1722 8.8341 13.1405C8.78198 13.1088 8.72372 13.0886 8.66318 13.0811C8.60264 13.0737 8.54121 13.0792 8.48297 13.0973C8.03788 13.1649 7.6018 13.2823 7.18297 13.4473C6.80061 13.6147 6.43554 13.819 6.09297 14.0573L5.25297 11.9873L4.40297 9.46735C4.35297 9.27735 4.28297 9.09735 4.23297 8.89735C4.21385 8.79154 4.21385 8.68316 4.23297 8.57735C4.28297 8.37635 4.38697 8.19235 4.53297 8.04735C4.71697 7.80001 4.92363 7.57335 5.15297 7.36735Z" fill="black"/>
</svg>
