<svg width="23" height="22" viewBox="0 0 23 22" fill="none" xmlns="http://www.w3.org/2000/svg">
    <path
        d="M1 21H22M1 21V15.8672L11.5 5.60162M1 21L6.25 21L16.75 10.7344M11.5 5.60162L15.2651 1.92057L15.2673 1.91838C15.7856 1.41167 16.0452 1.15787 16.3445 1.0628C16.6081 0.979065 16.8921 0.979065 17.1557 1.0628C17.4547 1.1578 17.714 1.41132 18.2316 1.91731L20.515 4.14982C21.0348 4.65798 21.2948 4.91218 21.3922 5.20517C21.4778 5.4629 21.4778 5.74051 21.3922 5.99823C21.2949 6.29101 21.0353 6.54483 20.5162 7.05227L20.5151 7.05336L16.75 10.7344M11.5 5.60162L16.75 10.7344"
        stroke="#0065A3" stroke-width="2" stroke-linecap="round" stroke-linejoin="round" />
</svg>
