<svg width="17" height="17" viewBox="0 0 17 17" fill="none" xmlns="http://www.w3.org/2000/svg">
<path d="M15.7501 2.21548C15.7501 1.70254 15.7498 1.44589 15.6476 1.24997C15.5577 1.07764 15.4148 0.937631 15.2384 0.849824C15.0379 0.75 14.7748 0.75 14.2498 0.75H2.24976C1.72471 0.75 1.46244 0.75 1.2619 0.849824C1.0855 0.937631 0.942185 1.07764 0.852303 1.24997C0.750122 1.44589 0.750122 1.70254 0.750122 2.21548V2.89071C0.750122 3.11472 0.750122 3.22681 0.776025 3.33222C0.798991 3.42567 0.836965 3.51494 0.888367 3.59688C0.946325 3.68928 1.02754 3.76861 1.18958 3.92691L5.9359 8.56371C6.09803 8.7221 6.17866 8.80087 6.23663 8.8933C6.28803 8.97524 6.32652 9.06482 6.34949 9.15827C6.37513 9.2626 6.37512 9.37336 6.37512 9.59284V13.9486C6.37512 14.7337 6.37512 15.1265 6.54438 15.3629C6.69218 15.5693 6.92019 15.707 7.17529 15.7438C7.46744 15.786 7.82704 15.6106 8.54584 15.2595L9.29584 14.8932C9.59683 14.7461 9.74696 14.6724 9.85692 14.5627C9.95415 14.4657 10.0285 14.3492 10.0739 14.2209C10.1251 14.0758 10.1251 13.911 10.1251 13.5822V9.59966C10.1251 9.37564 10.1251 9.26367 10.151 9.15827C10.174 9.06482 10.212 8.97524 10.2634 8.8933C10.321 8.80149 10.4014 8.72293 10.5614 8.56664L10.5646 8.56371L15.3109 3.92691C15.473 3.76851 15.5537 3.68931 15.6116 3.59688C15.663 3.51494 15.7015 3.42567 15.7245 3.33222C15.7501 3.22789 15.7501 3.117 15.7501 2.89752V2.21548Z" stroke="#0065A3" stroke-width="1.5" stroke-linecap="round" stroke-linejoin="round"/>
</svg>
