<svg width="18" height="19" viewBox="0 0 18 19" fill="none" xmlns="http://www.w3.org/2000/svg">
    <path
        d="M17.5565 9.27323C17.5565 8.67617 17.5041 8.10933 17.4145 7.55762H8.96887V10.9662H13.8045C13.5878 12.0847 12.9525 13.0294 12.0108 13.6719V15.9392H14.8957C16.5848 14.3596 17.5565 12.0318 17.5565 9.27323Z"
        fill="#4285F4" />
    <path
        d="M8.96885 18.1386C11.3904 18.1386 13.4159 17.3224 14.8957 15.9393L12.0108 13.672C11.2036 14.2162 10.1796 14.5487 8.96885 14.5487C6.6295 14.5487 4.6489 12.954 3.93887 10.8H0.964233V13.1354C2.4366 16.0981 5.46356 18.1386 8.96885 18.1386Z"
        fill="#34A853" />
    <path
        d="M3.93878 10.8C3.75193 10.2558 3.65477 9.67388 3.65477 9.06926C3.65477 8.46463 3.7594 7.88269 3.93878 7.33853V5.00317H0.964141C0.351276 6.22753 0 7.60305 0 9.06926C0 10.5355 0.351276 11.911 0.964141 13.1353L3.93878 10.8Z"
        fill="#FBBC05" />
    <path
        d="M8.96885 3.58994C10.2917 3.58994 11.4726 4.05097 12.4069 4.95035L14.963 2.36558C13.4159 0.899376 11.3904 0 8.96885 0C5.46356 0 2.4366 2.0406 0.964233 5.00325L3.93887 7.3386C4.6489 5.18464 6.6295 3.58994 8.96885 3.58994Z"
        fill="#EA4335" />
</svg>
