<svg width="100%" height="100%" viewBox="0 0 24 25" fill="none" xmlns="http://www.w3.org/2000/svg">
    <path
        d="M22.6828 9.4743L13.3137 0.630158L13.2949 0.61258C12.8643 0.21854 12.3018 0 11.7182 0C11.1345 0 10.572 0.21854 10.1414 0.61258L10.1215 0.630158L0.754687 9.4743C0.517149 9.69407 0.32752 9.9605 0.197662 10.2569C0.067805 10.5533 0.000514256 10.8733 0 11.197V22.0309C0 22.6525 0.24693 23.2487 0.686468 23.6882C1.12601 24.1278 1.72215 24.3747 2.34375 24.3747H7.96875C8.59035 24.3747 9.18649 24.1278 9.62603 23.6882C10.0656 23.2487 10.3125 22.6525 10.3125 22.0309V16.8747H13.125V22.0309C13.125 22.6525 13.3719 23.2487 13.8115 23.6882C14.251 24.1278 14.8471 24.3747 15.4688 24.3747H21.0938C21.7154 24.3747 22.3115 24.1278 22.751 23.6882C23.1906 23.2487 23.4375 22.6525 23.4375 22.0309V11.197C23.437 10.8733 23.3697 10.5533 23.2398 10.2569C23.11 9.9605 22.9204 9.69407 22.6828 9.4743ZM20.625 21.5622H15.9375V16.4059C15.9375 16.0982 15.8769 15.7934 15.7591 15.509C15.6413 15.2247 15.4687 14.9663 15.251 14.7487C15.0334 14.531 14.775 14.3584 14.4907 14.2406C14.2063 14.1228 13.9015 14.0622 13.5938 14.0622H9.84375C9.22215 14.0622 8.62601 14.3091 8.18647 14.7487C7.74693 15.1882 7.5 15.7843 7.5 16.4059V21.5622H2.8125V11.3997L11.7188 2.99149L20.625 11.3997V21.5622Z"
        fill="#A1A8B0" />
</svg>
