<svg width="100%" height="100%" viewBox="0 0 24 24" fill="none" xmlns="http://www.w3.org/2000/svg">
    <path
        d="M6.28597 15.8541C4.87097 16.6961 1.16097 18.4161 3.42097 20.5691C4.52397 21.6201 5.75297 22.3721 7.29797 22.3721H16.116C17.662 22.3721 18.891 21.6201 19.994 20.5691C22.254 18.4161 18.544 16.6961 17.129 15.8541C15.4868 14.8839 13.6143 14.3722 11.707 14.3722C9.79961 14.3722 7.92818 14.8839 6.28597 15.8541ZM16.208 6.87207C16.208 8.06554 15.7339 9.21014 14.8899 10.0541C14.046 10.898 12.9014 11.3721 11.708 11.3721C10.5145 11.3721 9.3699 10.898 8.52599 10.0541C7.68208 9.21014 7.20797 8.06554 7.20797 6.87207C7.20797 5.6786 7.68208 4.534 8.52599 3.69009C9.3699 2.84618 10.5145 2.37207 11.708 2.37207C12.9014 2.37207 14.046 2.84618 14.8899 3.69009C15.7339 4.534 16.208 5.6786 16.208 6.87207Z"
        stroke="#0065A3" stroke-width="1.5" stroke-linecap="round" stroke-linejoin="round" />
</svg>
