<svg width="100%" height="100%" viewBox="0 0 20 23" fill="none" xmlns="http://www.w3.org/2000/svg">
<path d="M12.6471 17.5789V18.6842C12.6471 20.5155 11.2249 22 9.47059 22C7.71627 22 6.29412 20.5155 6.29412 18.6842V17.5791M12.6471 17.5789L6.29412 17.5791M12.6471 17.5789H16.8824C17.4671 17.5789 17.9412 17.0841 17.9412 16.4737V15.8261C17.9412 15.533 17.8295 15.252 17.631 15.0446L17.0902 14.4801C16.9571 14.3412 16.8824 14.1526 16.8824 13.9561V9.8421C16.8824 9.6471 16.8756 9.45365 16.8617 9.26305M6.29412 17.5791L2.05882 17.5791C1.47406 17.5791 1 17.0839 1 16.4735V15.8261C1 15.533 1.11164 15.2523 1.3102 15.0449L1.85099 14.4796C1.98406 14.3407 2.05882 14.1529 2.05882 13.9564V9.84208C2.05882 5.56917 5.37718 2.10526 9.47059 2.10526C10.2241 2.10526 10.9513 2.22262 11.6363 2.44079M16.8617 9.26305C18.139 8.50175 19 7.06636 19 5.42105C19 2.97937 17.1038 1 14.7647 1C13.5256 1 12.4108 1.55543 11.6363 2.44079M16.8617 9.26305C16.2434 9.63154 15.5276 9.8421 14.7647 9.8421C12.4256 9.8421 10.5294 7.86273 10.5294 5.42105C10.5294 4.27279 10.9488 3.22678 11.6363 2.44079M16.8617 9.26305C16.8617 9.26304 16.8617 9.26306 16.8617 9.26305ZM11.6363 2.44079C11.6368 2.44094 11.6373 2.4411 11.6378 2.44126" stroke="#0065A3" stroke-width="2" stroke-linecap="round" stroke-linejoin="round"/>
</svg>
